REM DIRINDEX 1\2,1\3
REM DIRNAME folder01,folder02,folder03
TITLE ""
FILE "CD1Track02.mp3" MP3
  TRACK 01 AUDIO
    TITLE "0:"
    INDEX 01 00:00:00
  TRACK 02 AUDIO
    TITLE "2:cjc102_0002"
    INDEX 01 00:00:25
  TRACK 03 AUDIO
    TITLE "0:"
    INDEX 01 00:01:21
  TRACK 04 AUDIO
    TITLE "3:cjc102_0003"
    INDEX 01 00:01:22
  TRACK 05 AUDIO
    TITLE "0:"
    INDEX 01 00:02:49
  TRACK 06 AUDIO
    TITLE "3:cjc102_0004"
    INDEX 01 00:02:71
  TRACK 07 AUDIO
    TITLE "0:"
    INDEX 01 00:09:00
  TRACK 08 AUDIO
    TITLE "2:cjc102_0005"
    INDEX 01 00:09:02
  TRACK 09 AUDIO
    TITLE "0:"
    INDEX 01 00:10:06
  TRACK 10 AUDIO
    TITLE "3:cjc102_0006"
    INDEX 01 00:11:44
  TRACK 11 AUDIO
    TITLE "0:"
    INDEX 01 00:12:40
  TRACK 12 AUDIO
    TITLE "2:cjc102_0007"
    INDEX 01 00:13:63
  TRACK 13 AUDIO
    TITLE "0:"
    INDEX 01 00:14:60
  TRACK 14 AUDIO
    TITLE "3:cjc102_0008"
    INDEX 01 00:15:56
  TRACK 15 AUDIO
    TITLE "0:"
    INDEX 01 00:16:42
  TRACK 16 AUDIO
    TITLE "2:cjc102_0009"
    INDEX 01 00:16:57
  TRACK 17 AUDIO
    TITLE "0:"
    INDEX 01 00:17:69
  TRACK 18 AUDIO
    TITLE "3:cjc102_0010"
    INDEX 01 00:18:46
  TRACK 19 AUDIO
    TITLE "0:"
    INDEX 01 00:19:48
  TRACK 20 AUDIO
    TITLE "2:cjc102_0011"
    INDEX 01 00:19:62
  TRACK 21 AUDIO
    TITLE "0:"
    INDEX 01 00:20:69
  TRACK 22 AUDIO
    TITLE "3:cjc102_0012"
    INDEX 01 00:21:43
  TRACK 23 AUDIO
    TITLE "0:"
    INDEX 01 00:22:36
  TRACK 24 AUDIO
    TITLE "2:cjc102_0013"
    INDEX 01 00:22:50
  TRACK 25 AUDIO
    TITLE "0:"
    INDEX 01 00:23:63
  TRACK 26 AUDIO
    TITLE "3:cjc102_0014"
    INDEX 01 00:24:45
  TRACK 27 AUDIO
    TITLE "0:"
    INDEX 01 00:25:31
  TRACK 28 AUDIO
    TITLE "2:cjc102_0015"
    INDEX 01 00:25:64
  TRACK 29 AUDIO
    TITLE "0:"
    INDEX 01 00:27:04
  TRACK 30 AUDIO
    TITLE "3:cjc102_0016"
    INDEX 01 00:27:57
  TRACK 31 AUDIO
    TITLE "0:"
    INDEX 01 00:28:55
  TRACK 32 AUDIO
    TITLE "2:cjc102_0017"
    INDEX 01 00:29:01
  TRACK 33 AUDIO
    TITLE "0:"
    INDEX 01 00:30:08
  TRACK 34 AUDIO
    TITLE "3:cjc102_0018"
    INDEX 01 00:30:71
  TRACK 35 AUDIO
    TITLE "0:"
    INDEX 01 00:31:63
  TRACK 36 AUDIO
    TITLE "2:cjc102_0019"
    INDEX 01 00:32:23
  TRACK 37 AUDIO
    TITLE "0:"
    INDEX 01 00:33:30
  TRACK 38 AUDIO
    TITLE "3:cjc102_0020"
    INDEX 01 00:34:16
  TRACK 39 AUDIO
    TITLE "0:"
    INDEX 01 00:35:15
  TRACK 40 AUDIO
    TITLE "2:cjc102_0021"
    INDEX 01 00:35:45
  TRACK 41 AUDIO
    TITLE "0:"
    INDEX 01 00:36:48
  TRACK 42 AUDIO
    TITLE "3:cjc102_0022"
    INDEX 01 00:37:40
  TRACK 43 AUDIO
    TITLE "0:"
    INDEX 01 00:38:33
  TRACK 44 AUDIO
    TITLE "2:cjc102_0023"
    INDEX 01 00:39:00
  TRACK 45 AUDIO
    TITLE "0:"
    INDEX 01 00:39:72
  TRACK 46 AUDIO
    TITLE "3:cjc102_0024"
    INDEX 01 00:40:62
  TRACK 47 AUDIO
    TITLE "0:"
    INDEX 01 00:41:55
  TRACK 48 AUDIO
    TITLE "2:cjc102_0025"
    INDEX 01 00:42:23
  TRACK 49 AUDIO
    TITLE "0:"
    INDEX 01 00:43:33
  TRACK 50 AUDIO
    TITLE "3:cjc102_0026"
    INDEX 01 00:44:12
  TRACK 51 AUDIO
    TITLE "0:"
    INDEX 01 00:45:30
  TRACK 52 AUDIO
    TITLE "2:cjc102_0027"
    INDEX 01 00:45:57
  TRACK 53 AUDIO
    TITLE "0:"
    INDEX 01 00:46:72
  TRACK 54 AUDIO
    TITLE "3:cjc102_0028"
    INDEX 01 00:47:52
  TRACK 55 AUDIO
    TITLE "0:"
    INDEX 01 00:48:57
  TRACK 56 AUDIO
    TITLE "2:cjc102_0029"
    INDEX 01 00:49:12
  TRACK 57 AUDIO
    TITLE "0:"
    INDEX 01 00:50:15
  TRACK 58 AUDIO
    TITLE "3:cjc102_0030"
    INDEX 01 00:51:03
  TRACK 59 AUDIO
    TITLE "0:"
    INDEX 01 00:52:18
  TRACK 60 AUDIO
    TITLE "2:cjc102_0031"
    INDEX 01 00:52:47
  TRACK 61 AUDIO
    TITLE "0:"
    INDEX 01 00:53:66
  TRACK 62 AUDIO
    TITLE "3:cjc102_0032"
    INDEX 01 00:54:54
  TRACK 63 AUDIO
    TITLE "0:"
    INDEX 01 00:55:69
  TRACK 64 AUDIO
    TITLE "2:cjc102_0033"
    INDEX 01 00:56:18
  TRACK 65 AUDIO
    TITLE "0:"
    INDEX 01 00:57:33
  TRACK 66 AUDIO
    TITLE "3:cjc102_0034"
    INDEX 01 00:58:09
  TRACK 67 AUDIO
    TITLE "0:"
    INDEX 01 00:59:18
  TRACK 68 AUDIO
    TITLE "2:cjc102_0035"
    INDEX 01 00:59:49
  TRACK 69 AUDIO
    TITLE "0:"
    INDEX 01 01:00:60
  TRACK 70 AUDIO
    TITLE "3:cjc102_0036"
    INDEX 01 01:01:68
  TRACK 71 AUDIO
    TITLE "0:"
    INDEX 01 01:02:73
  TRACK 72 AUDIO
    TITLE "2:cjc102_0037"
    INDEX 01 01:03:37
  TRACK 73 AUDIO
    TITLE "0:"
    INDEX 01 01:04:48
  TRACK 74 AUDIO
    TITLE "3:cjc102_0038"
    INDEX 01 01:05:56
  TRACK 75 AUDIO
    TITLE "0:"
    INDEX 01 01:06:73
  TRACK 76 AUDIO
    TITLE "2:cjc102_0039"
    INDEX 01 01:07:49
  TRACK 77 AUDIO
    TITLE "0:"
    INDEX 01 01:08:64
  TRACK 78 AUDIO
    TITLE "2:cjc102_0040"
    INDEX 01 01:09:24
  TRACK 79 AUDIO
    TITLE "0:"
    INDEX 01 01:10:39
  TRACK 80 AUDIO
    TITLE "3:cjc102_0041"
    INDEX 01 01:11:45
  TRACK 81 AUDIO
    TITLE "0:"
    INDEX 01 01:12:60
  TRACK 82 AUDIO
    TITLE "2:cjc102_0042"
    INDEX 01 01:13:30
  TRACK 83 AUDIO
    TITLE "0:"
    INDEX 01 01:14:39
  TRACK 84 AUDIO
    TITLE "2:cjc102_0043"
    INDEX 01 01:14:74
  TRACK 85 AUDIO
    TITLE "0:"
    INDEX 01 01:16:11
  TRACK 86 AUDIO
    TITLE "3:cjc102_0044"
    INDEX 01 01:17:02
  TRACK 87 AUDIO
    TITLE "0:"
    INDEX 01 01:18:21
  TRACK 88 AUDIO
    TITLE "2:cjc102_0045"
    INDEX 01 01:18:72
  TRACK 89 AUDIO
    TITLE "0:"
    INDEX 01 01:20:04
  TRACK 90 AUDIO
    TITLE "2:cjc102_0046"
    INDEX 01 01:20:48
  TRACK 91 AUDIO
    TITLE "0:"
    INDEX 01 01:21:57
  TRACK 92 AUDIO
    TITLE "3:cjc102_0047"
    INDEX 01 01:22:46
  TRACK 93 AUDIO
    TITLE "0:"
    INDEX 01 01:23:54
  TRACK 94 AUDIO
    TITLE "2:cjc102_0048"
    INDEX 01 01:24:18
  TRACK 95 AUDIO
    TITLE "0:"
    INDEX 01 01:25:33
  TRACK 96 AUDIO
    TITLE "2:cjc102_0049"
    INDEX 01 01:25:64
  TRACK 97 AUDIO
    TITLE "0:"
    INDEX 01 01:27:06
  TRACK 98 AUDIO
    TITLE "3:cjc102_0050"
    INDEX 01 01:28:04
  TRACK 99 AUDIO
    TITLE "0:"
    INDEX 01 01:29:31
  TRACK 100 AUDIO
    TITLE "2:cjc102_0051"
    INDEX 01 01:29:64
  TRACK 101 AUDIO
    TITLE "0:"
    INDEX 01 01:30:73
  TRACK 102 AUDIO
    TITLE "2:cjc102_0052"
    INDEX 01 01:31:36
  TRACK 103 AUDIO
    TITLE "0:"
    INDEX 01 01:32:37
  TRACK 104 AUDIO
    TITLE "3:cjc102_0053"
    INDEX 01 01:33:31
  TRACK 105 AUDIO
    TITLE "0:"
    INDEX 01 01:34:48
  TRACK 106 AUDIO
    TITLE "2:cjc102_0054"
    INDEX 01 01:35:63
  TRACK 107 AUDIO
    TITLE "0:"
    INDEX 01 01:38:00
  TRACK 108 AUDIO
    TITLE "3:cjc102_0055"
    INDEX 01 01:39:08
  TRACK 109 AUDIO
    TITLE "0:"
    INDEX 01 01:40:36
  TRACK 110 AUDIO
    TITLE "2:cjc102_0056"
    INDEX 01 01:41:07
  TRACK 111 AUDIO
    TITLE "0:"
    INDEX 01 01:43:49
  TRACK 112 AUDIO
    TITLE "3:cjc102_0057"
    INDEX 01 01:44:32
  TRACK 113 AUDIO
    TITLE "0:"
    INDEX 01 01:45:61
  TRACK 114 AUDIO
    TITLE "2:cjc102_0058"
    INDEX 01 01:46:39
  TRACK 115 AUDIO
    TITLE "0:"
    INDEX 01 01:50:09
